<svg data-v-84e4046e="" width="24" height="24" viewBox="0 0 24 24" fill="none" xmlns="http://www.w3.org/2000/svg" class="ui-icon  icon-apple">
    <path fill-rule="evenodd" clip-rule="evenodd" d="M16.1475 0.75C16.2469 2.01122 15.8492 3.27244 15.0438 4.24338C14.2583 5.22433 13.0751 5.78488 11.8223 5.77487C11.7427 4.54367 12.1504 3.3325 12.9558 2.41161C13.7711 1.4707 14.9146 0.880126 16.1475 0.75ZM20.1292 8.17598C18.6806 9.06488 17.7915 10.623 17.7715 12.3208C17.7715 14.2385 18.9204 15.9663 20.6986 16.7154C20.3589 17.814 19.8495 18.8627 19.1801 19.8016C18.291 21.1399 17.352 22.4483 15.8635 22.4683C15.1551 22.4829 14.6784 22.2802 14.1823 22.0692C13.664 21.8488 13.1244 21.6193 12.277 21.6193C11.382 21.6193 10.8176 21.8551 10.2723 22.0828C9.80114 22.2796 9.34424 22.4705 8.70063 22.4982C7.28205 22.5582 6.20313 21.08 5.27406 19.7516C3.42592 17.045 1.98736 12.1311 3.91543 8.78523C4.82452 7.15725 6.51282 6.11854 8.38095 6.05861C9.18561 6.04161 9.95812 6.35239 10.6347 6.62457C11.1509 6.83223 11.6112 7.01742 11.9873 7.01742C12.3159 7.01742 12.7611 6.84099 13.2807 6.63506C14.1041 6.30877 15.1142 5.90844 16.1432 6.01866C17.7316 6.0686 19.2101 6.86761 20.1292 8.17598Z" fill="white"></path>
</svg>