<svg data-v-21c51920="" version="1.1" id="Слой_1" xmlns="http://www.w3.org/2000/svg" xmlns:xlink="http://www.w3.org/1999/xlink" x="0px" y="0px" viewBox="0 0 36 36" style="enable-background:new 0 0 36 36;" xml:space="preserve" width="32" height="32" class="ui-icon ">
    <style type="text/css">
        .st0{fill:#3B5998;}
        .st1{fill:#FFFFFF;}
    </style>
    <g id="surface1">
        <path class="st0" d="M36,31c0,2.8-2.2,5-5,5H5c-2.8,0-5-2.2-5-5V5c0-2.8,2.2-5,5-5h26c2.8,0,5,2.2,5,5V31z"></path>
        <path class="st1" d="M28.4,19H25v13h-5V19h-3v-4h3v-2.4C20,9.1,21.5,7,25.6,7H29v4h-2.3c-1.6,0-1.7,0.6-1.7,1.7V15h4L28.4,19z"></path>
    </g>
</svg>