<svg data-v-84e4046e="" width="24" height="24" viewBox="0 0 25 25" fill="none" xmlns="http://www.w3.org/2000/svg" class="ui-icon ">
    <path d="M21.7756 11.5149L17.4561 9.05957L14.0156 12.5L17.4561 15.9405L21.7756 13.4852C22.541 13.0532 22.541 11.9468 21.7756 11.5149Z" fill="url(#paint0_linear)"></path>
    <path d="M14.0156 12.5001L3.73969 2.22412C3.53508 2.42873 3.40625 2.70154 3.40625 3.0274V21.9727C3.40625 22.2986 3.53508 22.579 3.73969 22.776L14.0156 12.5001Z" fill="url(#paint1_linear)"></path>
    <path d="M17.456 9.05959L5.10369 2.04225C4.62626 1.76943 4.08064 1.89068 3.73962 2.22412L14.0156 12.5001L17.456 9.05959Z" fill="url(#paint2_linear)"></path>
    <path d="M14.0156 12.5001L3.73962 22.776C4.08064 23.117 4.62626 23.2307 5.10369 22.9579L17.456 15.9405L14.0156 12.5001Z" fill="url(#paint3_linear)"></path>
    <defs>
        <linearGradient id="paint0_linear" x1="14.0156" y1="12.5" x2="22.3516" y2="12.5" gradientUnits="userSpaceOnUse">
            <stop stop-color="#FFBD00"></stop>
            <stop offset="1" stop-color="#FFE000"></stop>
        </linearGradient>
        <linearGradient id="paint1_linear" x1="14.0156" y1="12.5001" x2="3.40625" y2="23.1094" gradientUnits="userSpaceOnUse">
            <stop stop-color="#00BEFF"></stop>
            <stop offset="1" stop-color="#00E3FF"></stop>
        </linearGradient>
        <linearGradient id="paint2_linear" x1="3.40623" y1="1.89067" x2="14.0156" y2="12.5" gradientUnits="userSpaceOnUse">
            <stop stop-color="#15CF74"></stop>
            <stop offset="1" stop-color="#00F076"></stop>
        </linearGradient>
        <linearGradient id="paint3_linear" x1="14.0156" y1="12.5001" x2="3.40623" y2="23.1094" gradientUnits="userSpaceOnUse">
            <stop stop-color="#FF3A44"></stop>
            <stop offset="1" stop-color="#E12653"></stop>
        </linearGradient>
    </defs>
</svg>