<svg data-v-21c51920="" width="32" height="32" viewBox="0 0 48 48" fill="none" xmlns="http://www.w3.org/2000/svg" class="ui-icon ">
    <path d="M24 0C44 0 48 4 48 24C48 44 44 48 24 48C4 48 0 44 0 24C0 4 4 0 24 0Z" fill="url(#paint0_linear_instagram)"></path>
    <path fill-rule="evenodd" clip-rule="evenodd" d="M23.9997 12.5224C27.7381 12.5224 28.1804 12.5369 29.657 12.6041C31.0218 12.6663 31.7631 12.8942 32.2566 13.0859C32.9102 13.3399 33.3764 13.6433 33.8665 14.1329C34.3567 14.623 34.6601 15.0893 34.9135 15.7428C35.1052 16.2363 35.3331 16.9776 35.3953 18.3425C35.4626 19.8185 35.477 20.2614 35.477 23.9997C35.477 27.7381 35.4626 28.1804 35.3953 29.657C35.3331 31.0218 35.1052 31.7631 34.9135 32.2566C34.6596 32.9102 34.3561 33.3764 33.8665 33.8665C33.3764 34.3567 32.9102 34.6601 32.2566 34.9135C31.7631 35.1052 31.0218 35.3331 29.657 35.3953C28.181 35.4626 27.7381 35.477 23.9997 35.477C20.2614 35.477 19.8185 35.4626 18.3425 35.3953C16.9776 35.3331 16.2363 35.1052 15.7428 34.9135C15.0893 34.6596 14.623 34.3561 14.1329 33.8665C13.6428 33.3764 13.3393 32.9102 13.0859 32.2566C12.8942 31.7631 12.6663 31.0218 12.6041 29.657C12.5369 28.181 12.5224 27.7381 12.5224 23.9997C12.5224 20.2614 12.5369 19.819 12.6041 18.3425C12.6663 16.9776 12.8942 16.2363 13.0859 15.7428C13.3399 15.0893 13.6433 14.623 14.1329 14.1329C14.623 13.6428 15.0893 13.3393 15.7428 13.0859C16.2363 12.8942 16.9776 12.6663 18.3425 12.6041C19.819 12.5369 20.2614 12.5224 23.9997 12.5224ZM23.9997 10C20.1975 10 19.7207 10.0161 18.2274 10.0845C16.7376 10.1523 15.72 10.389 14.8292 10.7352C13.9084 11.0931 13.1276 11.5716 12.3496 12.3501C11.5716 13.1282 11.0925 13.9089 10.7352 14.8292C10.389 15.72 10.1523 16.7376 10.0845 18.2274C10.0161 19.7207 10 20.1975 10 23.9997C10 27.802 10.0161 28.2788 10.0845 29.772C10.1523 31.2619 10.389 32.2794 10.7352 33.1702C11.0931 34.0911 11.5716 34.8718 12.3501 35.6499C13.1287 36.4284 13.9089 36.9069 14.8298 37.2648C15.72 37.611 16.7381 37.8477 18.228 37.9155C19.7212 37.9839 20.198 38 24.0003 38C27.8025 38 28.2793 37.9839 29.7726 37.9155C31.2624 37.8477 32.2805 37.611 33.1708 37.2648C34.0916 36.9069 34.8724 36.4284 35.6504 35.6499C36.429 34.8713 36.9075 34.0911 37.2653 33.1702C37.6115 32.28 37.8483 31.2619 37.9161 29.772C37.9844 28.2788 38.0006 27.802 38.0006 23.9997C38.0006 20.1975 37.9844 19.7207 37.9161 18.2274C37.8483 16.7376 37.6115 15.7195 37.2653 14.8292C36.9075 13.9084 36.429 13.1276 35.6504 12.3496C34.8718 11.571 34.0916 11.0925 33.1708 10.7347C32.2794 10.389 31.2619 10.1523 29.772 10.0845C28.2788 10.0161 27.802 10 23.9997 10ZM23.9997 16.8109C20.0291 16.8109 16.8109 20.0297 16.8109 23.9997C16.8109 27.9698 20.0297 31.1885 23.9997 31.1885C27.9698 31.1885 31.1885 27.9698 31.1885 23.9997C31.1885 20.0297 27.9703 16.8109 23.9997 16.8109ZM23.9997 28.6661C21.4223 28.6661 19.3333 26.5766 19.3333 23.9997C19.3333 21.4223 21.4228 19.3333 23.9997 19.3333C26.5766 19.3333 28.6661 21.4228 28.6661 23.9997C28.6661 26.5772 26.5772 28.6661 23.9997 28.6661ZM33.153 16.5264C33.153 17.4542 32.4009 18.2063 31.4731 18.2063C30.5453 18.2063 29.7931 17.4542 29.7931 16.5264C29.7931 15.5986 30.5453 14.8464 31.4731 14.8464C32.4009 14.8464 33.153 15.5986 33.153 16.5264Z" fill="white"></path>
    <defs>
        <linearGradient id="paint0_linear_instagram" x1="42.8104" y1="5.6564" x2="5.04419" y2="42.4854" gradientUnits="userSpaceOnUse">
            <stop stop-color="#BA00B2"></stop>
            <stop offset="0.5" stop-color="#F40000"></stop>
            <stop offset="1" stop-color="#FFA800"></stop>
        </linearGradient>
    </defs>
</svg>