<svg data-v-21c51920="" width="32" height="32" viewBox="0 0 44 44" fill="none" xmlns="http://www.w3.org/2000/svg" class="ui-icon ">
    <path d="M22 0C40.3333 0 44 3.66667 44 22C44 40.3333 40.3333 44 22 44C3.66667 44 0 40.3333 0 22C0 3.66667 3.66667 0 22 0Z" fill="url(#paint0_linear_5786_39548)"></path>
    <path d="M10.8091 21.8156C17.2226 19.0214 21.4992 17.1792 23.639 16.2892C29.7487 13.748 31.0182 13.3066 31.8457 13.2918C32.0277 13.2888 32.4346 13.3339 32.6982 13.5478C32.9207 13.7284 32.982 13.9723 33.0113 14.1436C33.0406 14.3148 33.0771 14.7048 33.0481 15.0096C32.717 18.4883 31.2844 26.9303 30.5556 30.8265C30.2472 32.4751 29.6399 33.0279 29.0521 33.082C27.7745 33.1996 26.8044 32.2377 25.567 31.4266C23.6307 30.1573 22.5368 29.3672 20.6573 28.1286C18.4852 26.6973 19.8933 25.9105 21.1311 24.6248C21.4551 24.2884 27.0842 19.1683 27.1931 18.7038C27.2067 18.6458 27.2194 18.4292 27.0907 18.3149C26.9621 18.2006 26.7722 18.2397 26.6352 18.2707C26.441 18.3148 23.3478 20.3593 17.3555 24.4043C16.4775 25.0072 15.6822 25.301 14.9697 25.2856C14.1842 25.2686 12.6732 24.8414 11.5499 24.4763C10.1721 24.0284 9.07712 23.7917 9.17248 23.0311C9.22214 22.6349 9.76769 22.2297 10.8091 21.8156Z" fill="white"></path>
    <defs>
        <linearGradient id="paint0_linear_5786_39548" x1="22" y1="0" x2="22" y2="43.6735" gradientUnits="userSpaceOnUse">
            <stop stop-color="#2AABEE"></stop>
            <stop offset="1" stop-color="#229ED9"></stop>
        </linearGradient>
    </defs>
</svg>