<svg xmlns="http://www.w3.org/2000/svg" width="18" height="18" viewBox="0 0 18 18" fill="none">
    <path d="M13.5 5.25H12.75V3.75C12.75 1.68 11.07 0 9 0C6.93 0 5.25 1.68 5.25 3.75V5.25H4.5C3.675 5.25 3 5.925 3 6.75V14.25C3 15.075 3.675 15.75 4.5 15.75H13.5C14.325 15.75 15 15.075 15 14.25V6.75C15 5.925 14.325 5.25 13.5 5.25ZM9 12C8.175 12 7.5 11.325 7.5 10.5C7.5 9.675 8.175 9 9 9C9.825 9 10.5 9.675 10.5 10.5C10.5 11.325 9.825 12 9 12ZM11.325 5.25H6.675V3.75C6.675 2.4675 7.7175 1.425 9 1.425C10.2825 1.425 11.325 2.4675 11.325 3.75V5.25Z" fill="#757575"/>
</svg>